<?xml version="1.0" encoding="UTF-8"?>
<svg id="Layer_2" data-name="Layer 2" xmlns="http://www.w3.org/2000/svg" viewBox="0 0 1060 260">
  <defs>
    <style>
      .cls-1 {
        fill: #fff;
      }
    </style>
  </defs>
  <g id="_02" data-name="02">
    <g>
      <rect class="cls-1" width="1060" height="260"/>
      <g>
        <path d="M50,90v72c0,26.51,21.49,48,48,48h34c26.51,0,48-21.49,48-48v-20c0-1.1-.9-2-2-2h-36c-1.1,0-2,.9-2,2v30c0,4.42-3.58,8-8,8h-34c-4.42,0-8-3.58-8-8v-84c0-4.42,3.58-8,8-8h34c4.42,0,8,3.58,8,8v20c0,1.1.9,2,2,2h36c1.1,0,2-.9,2-2v-18c0-22.09-17.91-40-40-40h-50c-22.09,0-40,17.91-40,40Z"/>
        <rect x="540" y="50" width="40" height="160" rx="4" ry="4"/>
        <path d="M858,80c1.1,0,2-.9,2-2v-26c0-1.1-.9-2-2-2h-106c-1.1,0-2,.9-2,2v156c0,1.1.9,2,2,2h106c1.1,0,2-.9,2-2v-26c0-1.1-.9-2-2-2h-66c-1.1,0-2-.9-2-2v-36c0-1.1.9-2,2-2h66c1.1,0,2-.9,2-2v-26c0-1.1-.9-2-2-2h-66c-1.1,0-2-.9-2-2v-26c0-1.1.9-2,2-2h66Z"/>
        <path d="M308,80c1.1,0,2-.9,2-2v-26c0-1.1-.9-2-2-2h-106c-1.1,0-2,.9-2,2v156c0,1.1.9,2,2,2h106c1.1,0,2-.9,2-2v-26c0-1.1-.9-2-2-2h-66c-1.1,0-2-.9-2-2v-36c0-1.1.9-2,2-2h66c1.1,0,2-.9,2-2v-26c0-1.1-.9-2-2-2h-66c-1.1,0-2-.9-2-2v-26c0-1.1.9-2,2-2h66Z"/>
        <path d="M924,50h0c-22.09,0-40,17.91-40,40v6.3c0,19.74,14.4,36.53,33.92,39.53l45.3,6.97c3.9.6,6.78,3.96,6.78,7.91v21.29c0,4.42-3.58,8-8,8h-34c-4.42,0-8-3.58-8-8v-20c0-1.1-.9-2-2-2h-36c-1.1,0-2,.9-2,2v10c0,26.51,21.49,48,48,48h34c26.51,0,48-21.49,48-48v-.44c0-23.91-17.44-44.24-41.08-47.88l-42.17-6.62c-3.89-.61-6.76-3.96-6.76-7.9v-11.16c0-4.42,3.58-8,8-8h34c4.42,0,8,3.58,8,8v10c0,1.1.9,2,2,2h32c1.1,0,2-.9,2-2v-8c0-22.09-17.91-40-40-40h-42Z"/>
        <path d="M478.86,54.54l-28.11,112.43c-.45,1.78-2.05,3.03-3.88,3.03h-3.75c-1.84,0-3.44-1.25-3.88-3.03l-28.11-112.43c-.67-2.67-3.07-4.54-5.82-4.54h-30.19c-2.6,0-4.51,2.45-3.88,4.97l31.18,124.73c4.45,17.81,20.45,30.3,38.81,30.3h7.54c18.35,0,34.35-12.49,38.81-30.3l31.18-124.73c.63-2.52-1.28-4.97-3.88-4.97h-30.19c-2.75,0-5.15,1.87-5.82,4.54Z"/>
        <path d="M714.71,122.89c-.68-.63-.82-1.64-.34-2.44,3.57-5.99,5.63-12.98,5.63-20.45v-10c0-22.09-17.91-40-40-40h-77c-1.66,0-3,1.34-3,3v154c0,1.66,1.34,3,3,3h79c26.51,0,48-21.49,48-48v-4c0-13.86-5.89-26.35-15.29-35.11ZM673,80c6.63,0,12,5.37,12,12v6c0,6.63-5.37,12-12,12h-31c-1.1,0-2-.9-2-2v-26c0-1.1.9-2,2-2h31ZM690,164c0,8.84-7.16,16-16,16h-32c-1.1,0-2-.9-2-2v-36c0-1.1.9-2,2-2h32c8.84,0,16,7.16,16,16v8Z"/>
      </g>
    </g>
  </g>
</svg>